<?xml version="1.0" encoding="utf-8"?>
<!-- Generator: Adobe Illustrator 21.1.0, SVG Export Plug-In . SVG Version: 6.00 Build 0)  -->
<svg version="1.1" id="Слой_1" xmlns="http://www.w3.org/2000/svg" xmlns:xlink="http://www.w3.org/1999/xlink" x="0px" y="0px"
	 viewBox="0 0 315.8 50.2" style="enable-background:new 0 0 315.8 50.2;" xml:space="preserve">
<style type="text/css">
	.st0{fill:#F3A541;}
	.st1{fill:#C9C9C9;}
	.st2{fill:#FFFFFF;}
	.st3{fill:#333333;}
</style>
<g>
	<rect x="265.9" class="st0" width="49.9" height="49.9"/>
	<g>
		<g>
			<path class="st1" d="M8.1,39.7l-2.5,4.6l2.8,5.6H5.7l-2.2-4.5H2.4v4.5H0V39.7h2.4v4h1.1l2.1-4H8.1z"/>
			<path class="st1" d="M16.5,40.8c0.8,0.9,1.2,2.3,1.2,4c0,1.1-0.2,2.1-0.6,2.9c-0.4,0.8-0.9,1.4-1.6,1.9c-0.7,0.4-1.5,0.6-2.5,0.6
				c-1,0-1.8-0.2-2.5-0.6c-0.7-0.4-1.2-1-1.6-1.8c-0.4-0.8-0.6-1.8-0.6-2.9c0-1.1,0.2-2.1,0.6-2.9c0.4-0.8,0.9-1.4,1.6-1.9
				c0.7-0.4,1.5-0.6,2.5-0.6C14.6,39.4,15.7,39.9,16.5,40.8z M11.5,42c-0.3,0.6-0.5,1.5-0.5,2.7s0.2,2.2,0.5,2.8
				c0.3,0.6,0.9,0.9,1.6,0.9c0.7,0,1.2-0.3,1.6-0.9c0.3-0.6,0.5-1.5,0.5-2.8c0-1.3-0.2-2.2-0.5-2.8c-0.3-0.6-0.9-0.8-1.6-0.8
				C12.4,41.2,11.9,41.5,11.5,42z"/>
			<path class="st1" d="M29.2,49.9h-2.4l-0.2-4c0-1-0.1-1.8-0.1-2.6c0-0.6,0-1.1,0-1.6l-1.6,7.1h-2.3l-1.7-7.1
				c0.1,0.9,0.1,1.7,0.1,2.4c0,0.6,0,1.2,0,1.8l-0.2,4h-2.4l0.8-10.3h3.1l1.5,7l1.4-7h3.1L29.2,49.9z"/>
			<path class="st1" d="M38.6,39.7v10.3h-2.4v-8.4h-3v8.4h-2.4V39.7H38.6z"/>
			<path class="st1" d="M48.3,39.7v10.3h-2.4v-8.4h-2.1L43.4,45c-0.1,1.2-0.3,2.1-0.5,2.8c-0.2,0.7-0.5,1.2-0.9,1.6
				c-0.4,0.4-1,0.7-1.7,0.8l-0.6-1.7c0.4-0.1,0.6-0.3,0.8-0.6c0.2-0.2,0.3-0.6,0.4-1c0.1-0.4,0.2-1.1,0.3-2l0.6-5.2H48.3z"/>
			<path class="st1" d="M56.5,39.7l-0.3,1.7h-3.6v2.5h3.2v1.7h-3.2v2.6h3.9v1.7h-6.3V39.7H56.5z"/>
			<path class="st1" d="M66.1,39.7l-2.5,4.6l2.8,5.6h-2.6l-2.2-4.5h-1.1v4.5H58V39.7h2.4v4h1.1l2.1-4H66.1z"/>
			<path class="st1" d="M72.9,39.7c0.5,0.2,1,0.5,1.4,0.8l-1.2,1.4c-0.3-0.2-0.6-0.4-0.9-0.5c-0.3-0.1-0.6-0.2-0.9-0.2
				c-0.7,0-1.2,0.3-1.6,0.9c-0.4,0.6-0.6,1.5-0.6,2.7c0,1.2,0.2,2.1,0.6,2.7c0.4,0.6,1,0.9,1.7,0.9c0.4,0,0.7-0.1,1-0.2
				c0.3-0.1,0.6-0.3,1-0.6l1.1,1.4c-0.4,0.4-0.9,0.7-1.4,0.9c-0.5,0.2-1.2,0.4-1.8,0.4c-0.9,0-1.8-0.2-2.5-0.6
				c-0.7-0.4-1.2-1-1.6-1.8c-0.4-0.8-0.6-1.8-0.6-2.9c0-1.1,0.2-2.1,0.6-2.9c0.4-0.8,1-1.4,1.7-1.8c0.7-0.4,1.5-0.6,2.4-0.6
				C71.8,39.4,72.4,39.5,72.9,39.7z"/>
			<path class="st1" d="M81,49.9v-4.4h-3.1v4.4h-2.4V39.7h2.4v4H81v-4h2.4v10.3H81z"/>
			<path class="st1" d="M92.9,40.8c0.8,0.9,1.2,2.3,1.2,4c0,1.1-0.2,2.1-0.6,2.9c-0.4,0.8-0.9,1.4-1.6,1.9s-1.5,0.6-2.5,0.6
				c-1,0-1.8-0.2-2.5-0.6c-0.7-0.4-1.2-1-1.6-1.8c-0.4-0.8-0.6-1.8-0.6-2.9c0-1.1,0.2-2.1,0.6-2.9c0.4-0.8,0.9-1.4,1.6-1.9
				c0.7-0.4,1.5-0.6,2.5-0.6C90.9,39.4,92.1,39.9,92.9,40.8z M87.9,42c-0.3,0.6-0.5,1.5-0.5,2.7s0.2,2.2,0.5,2.8
				c0.3,0.6,0.9,0.9,1.6,0.9c0.7,0,1.2-0.3,1.6-0.9c0.3-0.6,0.5-1.5,0.5-2.8c0-1.3-0.2-2.2-0.5-2.8c-0.3-0.6-0.9-0.8-1.6-0.8
				C88.8,41.2,88.2,41.5,87.9,42z"/>
			<path class="st1" d="M101.8,39.7l-0.3,1.7H98v2.5h3.2v1.7H98v2.6h3.9v1.7h-6.3V39.7H101.8z"/>
			<path class="st1" d="M114.4,40.8c0.8,0.9,1.2,2.3,1.2,4c0,1.1-0.2,2.1-0.6,2.9c-0.4,0.8-0.9,1.4-1.6,1.9
				c-0.7,0.4-1.5,0.6-2.5,0.6c-1,0-1.8-0.2-2.5-0.6c-0.7-0.4-1.2-1-1.6-1.8c-0.4-0.8-0.6-1.8-0.6-2.9c0-1.1,0.2-2.1,0.6-2.9
				c0.4-0.8,0.9-1.4,1.6-1.9c0.7-0.4,1.5-0.6,2.5-0.6C112.5,39.4,113.6,39.9,114.4,40.8z M109.4,42c-0.3,0.6-0.5,1.5-0.5,2.7
				s0.2,2.2,0.5,2.8c0.3,0.6,0.9,0.9,1.6,0.9c0.7,0,1.2-0.3,1.6-0.9c0.3-0.6,0.5-1.5,0.5-2.8c0-1.3-0.2-2.2-0.5-2.8
				c-0.3-0.6-0.9-0.8-1.6-0.8C110.3,41.2,109.8,41.5,109.4,42z"/>
			<path class="st1" d="M123.6,44.1c0.7,0.5,1.1,1.3,1.1,2.4c0,1.1-0.4,2-1.1,2.5c-0.7,0.6-1.7,0.9-2.9,0.9h-3.6V39.7h6.4l-0.3,1.8
				h-3.7v1.8h1.1C121.9,43.3,122.9,43.6,123.6,44.1z M122.1,46.6c0-1-0.6-1.6-1.7-1.6h-0.9v3.2h0.9
				C121.6,48.2,122.1,47.6,122.1,46.6z"/>
			<path class="st1" d="M132.2,39.7l-0.3,1.7h-3.6v2.5h3.2v1.7h-3.2v2.6h3.9v1.7h-6.3V39.7H132.2z"/>
			<path class="st1" d="M139.4,39.7c0.5,0.2,1,0.5,1.4,0.8l-1.2,1.4c-0.3-0.2-0.6-0.4-0.9-0.5c-0.3-0.1-0.6-0.2-0.9-0.2
				c-0.7,0-1.2,0.3-1.6,0.9c-0.4,0.6-0.6,1.5-0.6,2.7c0,1.2,0.2,2.1,0.6,2.7c0.4,0.6,1,0.9,1.7,0.9c0.4,0,0.7-0.1,1-0.2
				c0.3-0.1,0.6-0.3,1-0.6l1.1,1.4c-0.4,0.4-0.9,0.7-1.4,0.9c-0.5,0.2-1.2,0.4-1.8,0.4c-0.9,0-1.8-0.2-2.5-0.6
				c-0.7-0.4-1.2-1-1.6-1.8s-0.6-1.8-0.6-2.9c0-1.1,0.2-2.1,0.6-2.9c0.4-0.8,1-1.4,1.7-1.8c0.7-0.4,1.5-0.6,2.4-0.6
				C138.3,39.4,138.9,39.5,139.4,39.7z"/>
			<path class="st1" d="M149.9,39.7v10.3h-2.4v-8.4h-3v8.4H142V39.7H149.9z"/>
			<path class="st1" d="M158.1,39.7l-0.3,1.7h-3.6v2.5h3.2v1.7h-3.2v2.6h3.9v1.7h-6.3V39.7H158.1z"/>
			<path class="st1" d="M166.8,39.7v10.3h-2.4v-3.8c-0.3,0.3-0.7,0.5-1.1,0.6c-0.4,0.1-0.8,0.2-1.2,0.2c-1,0-1.8-0.3-2.3-0.9
				c-0.6-0.6-0.8-1.5-0.8-2.6v-3.7h2.4v3.7c0,0.6,0.1,1,0.4,1.3s0.6,0.4,1.1,0.4c0.7,0,1.2-0.2,1.6-0.6v-4.9H166.8z"/>
			<path class="st1" d="M175.1,39.7l-0.3,1.7h-3.6v2.5h3.2v1.7h-3.2v2.6h3.9v1.7h-6.3V39.7H175.1z"/>
			<path class="st1" d="M182.1,49.9v-4.4H179v4.4h-2.4V39.7h2.4v4h3.1v-4h2.4v10.3H182.1z"/>
			<path class="st1" d="M194.3,49.9h-2.4v-3.8c0-1.4,0.1-2.8,0.3-4l-2.9,7.9h-2.9V39.7h2.4v3.9c0,0.8,0,1.5-0.1,2
				c-0.1,0.5-0.1,1.2-0.3,1.9l3-7.8h2.9V49.9z"/>
			<path class="st1" d="M202.5,39.7l-0.3,1.7h-3.6v2.5h3.2v1.7h-3.2v2.6h3.9v1.7h-6.3V39.7H202.5z"/>
			<path class="st1" d="M213.4,39.7c0.5,0.2,1,0.5,1.4,0.8l-1.2,1.4c-0.3-0.2-0.6-0.4-0.9-0.5c-0.3-0.1-0.6-0.2-0.9-0.2
				c-0.7,0-1.2,0.3-1.6,0.9c-0.4,0.6-0.6,1.5-0.6,2.7c0,1.2,0.2,2.1,0.6,2.7c0.4,0.6,1,0.9,1.7,0.9c0.4,0,0.7-0.1,1-0.2
				c0.3-0.1,0.6-0.3,1-0.6l1.1,1.4c-0.4,0.4-0.9,0.7-1.4,0.9c-0.5,0.2-1.2,0.4-1.8,0.4c-0.9,0-1.8-0.2-2.5-0.6
				c-0.7-0.4-1.2-1-1.6-1.8c-0.4-0.8-0.6-1.8-0.6-2.9c0-1.1,0.2-2.1,0.6-2.9c0.4-0.8,1-1.4,1.7-1.8c0.7-0.4,1.5-0.6,2.4-0.6
				C212.4,39.4,212.9,39.5,213.4,39.7z"/>
			<path class="st1" d="M222.9,39.7l-0.2,1.9h-2.5v8.4h-2.4v-8.4h-2.6v-1.9H222.9z"/>
			<path class="st1" d="M230.4,40.5c0.7,0.6,1.1,1.4,1.1,2.5c0,1.2-0.4,2-1.1,2.6c-0.7,0.6-1.7,0.9-3,0.9h-1.1v3.4h-2.4V39.7h3.3
				C228.6,39.7,229.6,40,230.4,40.5z M228.5,44.4c0.3-0.3,0.5-0.7,0.5-1.3c0-1.1-0.6-1.6-1.8-1.6h-0.9v3.4h0.9
				C227.8,44.8,228.2,44.6,228.5,44.4z"/>
			<path class="st1" d="M240.3,40.8c0.8,0.9,1.2,2.3,1.2,4c0,1.1-0.2,2.1-0.6,2.9c-0.4,0.8-0.9,1.4-1.6,1.9s-1.5,0.6-2.5,0.6
				c-1,0-1.8-0.2-2.5-0.6c-0.7-0.4-1.2-1-1.6-1.8c-0.4-0.8-0.6-1.8-0.6-2.9c0-1.1,0.2-2.1,0.6-2.9c0.4-0.8,0.9-1.4,1.6-1.9
				c0.7-0.4,1.5-0.6,2.5-0.6C238.4,39.4,239.5,39.9,240.3,40.8z M235.3,42c-0.3,0.6-0.5,1.5-0.5,2.7s0.2,2.2,0.5,2.8
				c0.3,0.6,0.9,0.9,1.6,0.9c0.7,0,1.2-0.3,1.6-0.9c0.3-0.6,0.5-1.5,0.5-2.8c0-1.3-0.2-2.2-0.5-2.8c-0.3-0.6-0.9-0.8-1.6-0.8
				S235.7,41.5,235.3,42z"/>
			<path class="st1" d="M249.3,39.7l-0.3,1.7h-3.6v2.5h3.2v1.7h-3.2v2.6h3.9v1.7H243V39.7H249.3z"/>
			<path class="st1" d="M258.8,39.7l-2.5,4.6l2.8,5.6h-2.6l-2.2-4.5h-1.1v4.5h-2.4V39.7h2.4v4h1.1l2.1-4H258.8z"/>
		</g>
	</g>
	<g>
		<path class="st2" d="M15.8,33.3V8.6h-1.5l-3.9,24.8H0.1v-4.1L6.4,0.3h19.8v33H15.8z"/>
		<path class="st2" d="M34,33.3c-2.5,0-4.2-1.7-4.2-4.1V4.4c0-2.4,1.7-4.1,4.2-4.1h16.5c2.5,0,4.2,1.7,4.2,4.1v24.8
			c0,2.4-1.7,4.1-4.2,4.1H34z M40.2,8.6v16.5h4.1V8.6H40.2z"/>
		<path class="st2" d="M73.1,0.3h9.8v4.1L79,15.8l4.6,13.4v4.1H73.4l-2.8-12.8h-1.8v12.8H58.4v-33h10.3v12h1.8L73.1,0.3z"/>
		<path class="st2" d="M90.6,33.3c-2.5,0-4.2-1.7-4.2-4.1V4.4c0-2.4,1.7-4.1,4.2-4.1h16.5c2.5,0,4.2,1.7,4.2,4.1v24.8
			c0,2.4-1.7,4.1-4.2,4.1H90.6z M96.8,8.6v16.5h4.1V8.6H96.8z"/>
		<path class="st2" d="M125,17.5h-0.8v15.8h-10.1v-4.1l3.4-28.9H129l2.5,13h0.7l2.5-13h11.6l3.3,28.9v4.1h-10V17.5h-0.8l-2.5,15.8
			h-8.6L125,17.5z"/>
		<path class="st2" d="M156.6,33.3c-2.5,0-4.2-1.7-4.2-4.1V4.4c0-2.4,1.7-4.1,4.2-4.1H173c2.5,0,4.2,1.7,4.2,4.1v24.8
			c0,2.4-1.7,4.1-4.2,4.1H156.6z M162.7,8.6v16.5h4.1V8.6H162.7z"/>
		<path class="st2" d="M179.5,8.6V0.3h23.1v4.1L201,8.6h-5v24.7h-10.3V8.6H179.5z"/>
		<path class="st2" d="M219.4,0.3h10.3v33h-10.3v-4.1l1.6-10.6h-0.8L215.3,30v3.3H205v-33h10.3v4.1L213.8,15h0.8l4.9-11.4V0.3z"/>
		<path class="st2" d="M233.5,33.3v-33h20.6c2.5,0,4.2,1.7,4.2,4.1V12c0,2.4-2,4-4.2,4v0.9c2.3,0,4.2,1.6,4.2,4v8.3
			c0,2.4-1.7,4.1-4.2,4.1H233.5z M247.9,8.6h-4.1v3.7h4.1V8.6z M243.8,25.1h4.1v-4.5h-4.1V25.1z"/>
	</g>
	<g>
		<path class="st3" d="M274.8,28.3v3.3H271v-3.3H274.8z"/>
		<path class="st3" d="M280.5,27.5v4.2h-4.2V18.3h8.3c1,0,1.7,0.7,1.7,1.7v5.9c0,1-0.7,1.7-1.7,1.7H280.5z M280.5,24.1h1.7v-2.5
			h-1.7V24.1z"/>
		<path class="st3" d="M296,18.3c1,0,1.7,0.7,1.7,1.7v5.3c0,0.6-0.5,1.3-1.1,1.5l1.3,3.3v1.7h-4.1l-1.1-4.2h-0.8v4.2h-4.2V18.3H296z
			 M291.9,21.6v2.5h1.7v-2.5H291.9z"/>
		<path class="st3" d="M300.7,31.6c-1,0-1.7-0.7-1.7-1.7v-10c0-1,0.7-1.7,1.7-1.7h6.7c1,0,1.7,0.7,1.7,1.7v10c0,1-0.7,1.7-1.7,1.7
			H300.7z M303.2,21.6v6.7h1.7v-6.7H303.2z"/>
	</g>
</g>
</svg>
